<?xml version="1.0" standalone="no"?>
<!DOCTYPE svg PUBLIC "-//W3C//DTD SVG 20010904//EN"
 "http://www.w3.org/TR/2001/REC-SVG-20010904/DTD/svg10.dtd">
<svg version="1.0" xmlns="http://www.w3.org/2000/svg"
 width="512.000000pt" height="512.000000pt" viewBox="0 0 512.000000 512.000000"
 preserveAspectRatio="xMidYMid meet">
<metadata>
Created by potrace 1.11, written by Peter Selinger 2001-2013
</metadata>
<g transform="translate(0.000000,512.000000) scale(0.100000,-0.100000)"
fill="#000000" stroke="none">
<path d="M253 5110 c-65 -13 -116 -44 -171 -105 -90 -98 -83 137 -80 -2465 l3
-2305 24 -48 c31 -65 93 -124 161 -156 l55 -26 2310 0 2310 0 56 26 c69 33
127 89 160 155 l24 49 0 2325 0 2325 -22 45 c-32 65 -97 128 -162 159 l-56 26
-2285 1 c-1257 1 -2304 -2 -2327 -6z"/>
</g>
</svg>
